<?xml version="1.0" encoding="UTF-8" standalone="no"?>
<!DOCTYPE svg PUBLIC "-//W3C//DTD SVG 1.1//EN"
 "http://www.w3.org/Graphics/SVG/1.1/DTD/svg11.dtd">
<!-- Generated by graphviz version 2.40.1 (20161225.0304)
 -->
<!-- Title: G Pages: 1 -->
<svg width="876pt" height="332pt"
 viewBox="0.00 0.00 875.87 332.00" xmlns="http://www.w3.org/2000/svg" xmlns:xlink="http://www.w3.org/1999/xlink">
<g id="graph0" class="graph" transform="scale(1 1) rotate(0) translate(4 328)">
<title>G</title>
<polygon fill="#ffffff" stroke="transparent" points="-4,4 -4,-328 871.8715,-328 871.8715,4 -4,4"/>
<!-- O -->
<g id="node1" class="node">
<title>O</title>
<ellipse fill="none" stroke="#000000" cx="656.7061" cy="-306" rx="27" ry="18"/>
<text text-anchor="middle" x="656.7061" y="-301.8" font-family="Times,serif" font-size="14.00" fill="#000000">O</text>
</g>
<!-- a -->
<g id="node2" class="node">
<title>a</title>
<ellipse fill="none" stroke="#000000" cx="214.7061" cy="-234" rx="29.0337" ry="18"/>
<text text-anchor="middle" x="214.7061" y="-229.8" font-family="Times,serif" font-size="14.00" fill="#000000">A(7)</text>
</g>
<!-- O&#45;&gt;a -->
<g id="edge1" class="edge">
<title>O&#45;&gt;a</title>
<path fill="none" stroke="#000000" d="M630.3807,-301.7117C552.5102,-289.0269 323.7095,-251.7562 243.1598,-238.635"/>
</g>
<!-- b -->
<g id="node3" class="node">
<title>b</title>
<ellipse fill="none" stroke="#000000" cx="524.7061" cy="-234" rx="28.9715" ry="18"/>
<text text-anchor="middle" x="524.7061" y="-229.8" font-family="Times,serif" font-size="14.00" fill="#000000">B(3)</text>
</g>
<!-- O&#45;&gt;b -->
<g id="edge2" class="edge">
<title>O&#45;&gt;b</title>
<path fill="none" stroke="#000000" d="M635.7903,-294.5914C611.3644,-281.2682 571.1576,-259.3371 546.4016,-245.8339"/>
</g>
<!-- c -->
<g id="node4" class="node">
<title>c</title>
<ellipse fill="none" stroke="#000000" cx="656.7061" cy="-234" rx="28.9715" ry="18"/>
<text text-anchor="middle" x="656.7061" y="-229.8" font-family="Times,serif" font-size="14.00" fill="#000000">C(7)</text>
</g>
<!-- O&#45;&gt;c -->
<g id="edge3" class="edge">
<title>O&#45;&gt;c</title>
<path fill="none" stroke="#000000" d="M656.7061,-287.8314C656.7061,-277 656.7061,-263.2876 656.7061,-252.4133"/>
</g>
<!-- d -->
<g id="node5" class="node">
<title>d</title>
<ellipse fill="none" stroke="#000000" cx="732.7061" cy="-234" rx="29.0337" ry="18"/>
<text text-anchor="middle" x="732.7061" y="-229.8" font-family="Times,serif" font-size="14.00" fill="#000000">D(6)</text>
</g>
<!-- O&#45;&gt;d -->
<g id="edge4" class="edge">
<title>O&#45;&gt;d</title>
<path fill="none" stroke="#000000" d="M672.4534,-291.0816C685.4099,-278.807 703.6955,-261.4838 716.7176,-249.147"/>
</g>
<!-- e -->
<g id="node6" class="node">
<title>e</title>
<ellipse fill="none" stroke="#000000" cx="807.7061" cy="-234" rx="28.3893" ry="18"/>
<text text-anchor="middle" x="807.7061" y="-229.8" font-family="Times,serif" font-size="14.00" fill="#000000">E(7)</text>
</g>
<!-- O&#45;&gt;e -->
<g id="edge5" class="edge">
<title>O&#45;&gt;e</title>
<path fill="none" stroke="#000000" d="M679.0199,-295.5142C702.0256,-284.6835 738.9205,-267.2593 770.7061,-252 775.3428,-249.7741 780.2981,-247.3764 785.026,-245.0797"/>
</g>
<!-- ab -->
<g id="node7" class="node">
<title>ab</title>
<ellipse fill="none" stroke="#000000" cx="35.7061" cy="-162" rx="35.9135" ry="18"/>
<text text-anchor="middle" x="35.7061" y="-157.8" font-family="Times,serif" font-size="14.00" fill="#000000">AB(0)</text>
</g>
<!-- a&#45;&gt;ab -->
<g id="edge6" class="edge">
<title>a&#45;&gt;ab</title>
<path fill="none" stroke="#000000" d="M189.8011,-224.1055C162.6938,-213.3202 118.0833,-195.525 79.7061,-180 74.5034,-177.8953 68.9602,-175.6387 63.6244,-173.4594"/>
</g>
<!-- ac -->
<g id="node8" class="node">
<title>ac</title>
<ellipse fill="none" stroke="#000000" cx="124.7061" cy="-162" rx="35.9135" ry="18"/>
<text text-anchor="middle" x="124.7061" y="-157.8" font-family="Times,serif" font-size="14.00" fill="#000000">AC(4)</text>
</g>
<!-- a&#45;&gt;ac -->
<g id="edge7" class="edge">
<title>a&#45;&gt;ac</title>
<path fill="none" stroke="#000000" d="M196.4933,-219.4297C181.1869,-207.1846 159.3794,-189.7386 143.8238,-177.2941"/>
</g>
<!-- ad -->
<g id="node11" class="node">
<title>ad</title>
<ellipse fill="none" stroke="#000000" cx="214.7061" cy="-162" rx="36.4761" ry="18"/>
<text text-anchor="middle" x="214.7061" y="-157.8" font-family="Times,serif" font-size="14.00" fill="#000000">AD(5)</text>
</g>
<!-- a&#45;&gt;ad -->
<g id="edge10" class="edge">
<title>a&#45;&gt;ad</title>
<path fill="none" stroke="#000000" d="M214.7061,-215.8314C214.7061,-205 214.7061,-191.2876 214.7061,-180.4133"/>
</g>
<!-- ae -->
<g id="node13" class="node">
<title>ae</title>
<ellipse fill="none" stroke="#000000" cx="303.7061" cy="-162" rx="35.3315" ry="18"/>
<text text-anchor="middle" x="303.7061" y="-157.8" font-family="Times,serif" font-size="14.00" fill="#000000">AE(6)</text>
</g>
<!-- a&#45;&gt;ae -->
<g id="edge12" class="edge">
<title>a&#45;&gt;ae</title>
<path fill="none" stroke="#000000" d="M232.7166,-219.4297C247.853,-207.1846 269.4181,-189.7386 284.8009,-177.2941"/>
</g>
<!-- bc -->
<g id="node14" class="node">
<title>bc</title>
<ellipse fill="none" stroke="#000000" cx="391.7061" cy="-162" rx="35.3509" ry="18"/>
<text text-anchor="middle" x="391.7061" y="-157.8" font-family="Times,serif" font-size="14.00" fill="#000000">BC(3)</text>
</g>
<!-- b&#45;&gt;bc -->
<g id="edge13" class="edge">
<title>b&#45;&gt;bc</title>
<path fill="none" stroke="#000000" d="M502.7439,-222.1107C478.8389,-209.1696 440.7234,-188.5357 415.9554,-175.1274"/>
</g>
<!-- bd -->
<g id="node15" class="node">
<title>bd</title>
<ellipse fill="none" stroke="#000000" cx="480.7061" cy="-162" rx="35.9135" ry="18"/>
<text text-anchor="middle" x="480.7061" y="-157.8" font-family="Times,serif" font-size="14.00" fill="#000000">BD(1)</text>
</g>
<!-- b&#45;&gt;bd -->
<g id="edge14" class="edge">
<title>b&#45;&gt;bd</title>
<path fill="none" stroke="#000000" d="M514.2788,-216.937C507.3664,-205.626 498.3234,-190.8282 491.3643,-179.4407"/>
</g>
<!-- be -->
<g id="node16" class="node">
<title>be</title>
<ellipse fill="none" stroke="#000000" cx="568.7061" cy="-162" rx="34.769" ry="18"/>
<text text-anchor="middle" x="568.7061" y="-157.8" font-family="Times,serif" font-size="14.00" fill="#000000">BE(1)</text>
</g>
<!-- b&#45;&gt;be -->
<g id="edge15" class="edge">
<title>b&#45;&gt;be</title>
<path fill="none" stroke="#000000" d="M535.1335,-216.937C542.0458,-205.626 551.0889,-190.8282 558.0479,-179.4407"/>
</g>
<!-- cd -->
<g id="node17" class="node">
<title>cd</title>
<ellipse fill="none" stroke="#000000" cx="656.7061" cy="-162" rx="35.9135" ry="18"/>
<text text-anchor="middle" x="656.7061" y="-157.8" font-family="Times,serif" font-size="14.00" fill="#000000">CD(4)</text>
</g>
<!-- c&#45;&gt;cd -->
<g id="edge16" class="edge">
<title>c&#45;&gt;cd</title>
<path fill="none" stroke="#000000" d="M656.7061,-215.8314C656.7061,-205 656.7061,-191.2876 656.7061,-180.4133"/>
</g>
<!-- ce -->
<g id="node19" class="node">
<title>ce</title>
<ellipse fill="none" stroke="#000000" cx="744.7061" cy="-162" rx="34.769" ry="18"/>
<text text-anchor="middle" x="744.7061" y="-157.8" font-family="Times,serif" font-size="14.00" fill="#000000">CE(4)</text>
</g>
<!-- c&#45;&gt;ce -->
<g id="edge18" class="edge">
<title>c&#45;&gt;ce</title>
<path fill="none" stroke="#000000" d="M674.5143,-219.4297C689.4805,-207.1846 710.8033,-189.7386 726.0133,-177.2941"/>
</g>
<!-- de -->
<g id="node20" class="node">
<title>de</title>
<ellipse fill="none" stroke="#000000" cx="832.7061" cy="-162" rx="35.3315" ry="18"/>
<text text-anchor="middle" x="832.7061" y="-157.8" font-family="Times,serif" font-size="14.00" fill="#000000">DE(4)</text>
</g>
<!-- d&#45;&gt;de -->
<g id="edge19" class="edge">
<title>d&#45;&gt;de</title>
<path fill="none" stroke="#000000" d="M751.9871,-220.1177C769.2408,-207.695 794.4624,-189.5355 812.1073,-176.8311"/>
</g>
<!-- acd -->
<g id="node9" class="node">
<title>acd</title>
<ellipse fill="none" stroke="#000000" cx="118.7061" cy="-90" rx="42.8557" ry="18"/>
<text text-anchor="middle" x="118.7061" y="-85.8" font-family="Times,serif" font-size="14.00" fill="#000000">ACD(3)</text>
</g>
<!-- ac&#45;&gt;acd -->
<g id="edge8" class="edge">
<title>ac&#45;&gt;acd</title>
<path fill="none" stroke="#000000" d="M123.1921,-143.8314C122.2895,-133 121.1468,-119.2876 120.2406,-108.4133"/>
</g>
<!-- acde -->
<g id="node10" class="node">
<title>acde</title>
<ellipse fill="none" stroke="#000000" cx="118.7061" cy="-18" rx="48.654" ry="18"/>
<text text-anchor="middle" x="118.7061" y="-13.8" font-family="Times,serif" font-size="14.00" fill="#000000">ACDE(2)</text>
</g>
<!-- acd&#45;&gt;acde -->
<g id="edge9" class="edge">
<title>acd&#45;&gt;acde</title>
<path fill="none" stroke="#000000" d="M118.7061,-71.8314C118.7061,-61 118.7061,-47.2876 118.7061,-36.4133"/>
</g>
<!-- ade -->
<g id="node12" class="node">
<title>ade</title>
<ellipse fill="none" stroke="#000000" cx="221.7061" cy="-90" rx="42.2738" ry="18"/>
<text text-anchor="middle" x="221.7061" y="-85.8" font-family="Times,serif" font-size="14.00" fill="#000000">ADE(4)</text>
</g>
<!-- ad&#45;&gt;ade -->
<g id="edge11" class="edge">
<title>ad&#45;&gt;ade</title>
<path fill="none" stroke="#000000" d="M216.4725,-143.8314C217.5256,-133 218.8587,-119.2876 219.916,-108.4133"/>
</g>
<!-- cde -->
<g id="node18" class="node">
<title>cde</title>
<ellipse fill="none" stroke="#000000" cx="656.7061" cy="-90" rx="41.7114" ry="18"/>
<text text-anchor="middle" x="656.7061" y="-85.8" font-family="Times,serif" font-size="14.00" fill="#000000">CDE(2)</text>
</g>
<!-- cd&#45;&gt;cde -->
<g id="edge17" class="edge">
<title>cd&#45;&gt;cde</title>
<path fill="none" stroke="#000000" d="M656.7061,-143.8314C656.7061,-133 656.7061,-119.2876 656.7061,-108.4133"/>
</g>
</g>
</svg>
